<mxfile host="65bd71144e" scale="1" border="10">
    <diagram id="SL8H2ZP1onxJy9nslx8K" name="Page-1">
        <mxGraphModel dx="130" dy="378" grid="1" gridSize="10" guides="1" tooltips="1" connect="1" arrows="1" fold="1" page="1" pageScale="1" pageWidth="827" pageHeight="1169" background="#ffffff" math="0" shadow="0">
            <root>
                <mxCell id="0"/>
                <mxCell id="1" parent="0"/>
                <mxCell id="NaqtpgOzilmIxhuoCxP4-29" value="" style="triangle;whiteSpace=wrap;html=1;fillColor=#00FF00;strokeColor=none;" parent="1" vertex="1">
                    <mxGeometry x="190" y="260" width="270" height="40" as="geometry"/>
                </mxCell>
                <mxCell id="NaqtpgOzilmIxhuoCxP4-7" value="" style="rounded=0;whiteSpace=wrap;html=1;strokeColor=none;fillColor=#00FF00;" parent="1" vertex="1">
                    <mxGeometry x="140" y="260" width="30" height="40" as="geometry"/>
                </mxCell>
                <mxCell id="NaqtpgOzilmIxhuoCxP4-1" value="" style="endArrow=none;html=1;rounded=0;" parent="1" edge="1">
                    <mxGeometry width="50" height="50" relative="1" as="geometry">
                        <mxPoint x="40" y="400" as="sourcePoint"/>
                        <mxPoint x="510" y="400" as="targetPoint"/>
                    </mxGeometry>
                </mxCell>
                <mxCell id="NaqtpgOzilmIxhuoCxP4-10" value="" style="rounded=0;whiteSpace=wrap;html=1;fillColor=#000000;" parent="1" vertex="1">
                    <mxGeometry x="85" y="300" width="10" height="100" as="geometry"/>
                </mxCell>
                <mxCell id="NaqtpgOzilmIxhuoCxP4-13" value="" style="rounded=0;whiteSpace=wrap;html=1;fillColor=#000000;" parent="1" vertex="1">
                    <mxGeometry x="225" y="350" width="10" height="50" as="geometry"/>
                </mxCell>
                <mxCell id="NaqtpgOzilmIxhuoCxP4-16" value="" style="rounded=0;whiteSpace=wrap;html=1;fillColor=#000000;" parent="1" vertex="1">
                    <mxGeometry x="475" y="310" width="10" height="90" as="geometry"/>
                </mxCell>
                <mxCell id="NaqtpgOzilmIxhuoCxP4-18" value="" style="rounded=0;whiteSpace=wrap;html=1;fillColor=#000000;" parent="1" vertex="1">
                    <mxGeometry x="175" y="310" width="10" height="90" as="geometry"/>
                </mxCell>
                <mxCell id="NaqtpgOzilmIxhuoCxP4-52" style="edgeStyle=orthogonalEdgeStyle;rounded=0;orthogonalLoop=1;jettySize=auto;html=1;exitX=0.5;exitY=1;exitDx=0;exitDy=0;entryX=0.5;entryY=0;entryDx=0;entryDy=0;" parent="1" source="NaqtpgOzilmIxhuoCxP4-32" target="NaqtpgOzilmIxhuoCxP4-3" edge="1">
                    <mxGeometry relative="1" as="geometry"/>
                </mxCell>
                <mxCell id="NaqtpgOzilmIxhuoCxP4-32" value="&lt;div&gt;Laser,&lt;/div&gt;&lt;div&gt;532 nm&lt;/div&gt;" style="text;html=1;strokeColor=none;fillColor=none;align=center;verticalAlign=middle;whiteSpace=wrap;rounded=0;" parent="1" vertex="1">
                    <mxGeometry x="60" y="200" width="60" height="35" as="geometry"/>
                </mxCell>
                <mxCell id="NaqtpgOzilmIxhuoCxP4-44" style="edgeStyle=orthogonalEdgeStyle;rounded=0;orthogonalLoop=1;jettySize=auto;html=1;exitX=0.5;exitY=1;exitDx=0;exitDy=0;" parent="1" source="NaqtpgOzilmIxhuoCxP4-36" target="NaqtpgOzilmIxhuoCxP4-6" edge="1">
                    <mxGeometry relative="1" as="geometry"/>
                </mxCell>
                <mxCell id="NaqtpgOzilmIxhuoCxP4-36" value="SLM" style="text;html=1;strokeColor=none;fillColor=none;align=center;verticalAlign=middle;whiteSpace=wrap;rounded=0;" parent="1" vertex="1">
                    <mxGeometry x="200" y="142.5" width="60" height="25" as="geometry"/>
                </mxCell>
                <mxCell id="NaqtpgOzilmIxhuoCxP4-45" style="edgeStyle=orthogonalEdgeStyle;rounded=0;orthogonalLoop=1;jettySize=auto;html=1;exitX=0.5;exitY=1;exitDx=0;exitDy=0;" parent="1" source="NaqtpgOzilmIxhuoCxP4-38" target="NaqtpgOzilmIxhuoCxP4-23" edge="1">
                    <mxGeometry relative="1" as="geometry"/>
                </mxCell>
                <mxCell id="NaqtpgOzilmIxhuoCxP4-38" value="&lt;div&gt;Lens,&lt;/div&gt;&lt;div&gt;f=200,&lt;br&gt;&lt;/div&gt;&lt;div&gt;(convex)&lt;br&gt;&lt;/div&gt;" style="text;html=1;strokeColor=none;fillColor=none;align=center;verticalAlign=middle;whiteSpace=wrap;rounded=0;" parent="1" vertex="1">
                    <mxGeometry x="150" y="150" width="60" height="55" as="geometry"/>
                </mxCell>
                <mxCell id="NaqtpgOzilmIxhuoCxP4-6" value="" style="rounded=0;whiteSpace=wrap;html=1;fillColor=#000000;" parent="1" vertex="1">
                    <mxGeometry x="220" y="210" width="20" height="140" as="geometry"/>
                </mxCell>
                <mxCell id="NaqtpgOzilmIxhuoCxP4-23" value="" style="rounded=0;whiteSpace=wrap;html=1;fillColor=#000000;" parent="1" vertex="1">
                    <mxGeometry x="170" y="250" width="20" height="60" as="geometry"/>
                </mxCell>
                <mxCell id="NaqtpgOzilmIxhuoCxP4-15" value="" style="rounded=0;whiteSpace=wrap;html=1;fillColor=#000000;" parent="1" vertex="1">
                    <mxGeometry x="430" y="260" width="20" height="40" as="geometry"/>
                </mxCell>
                <mxCell id="NaqtpgOzilmIxhuoCxP4-14" value="" style="rounded=0;whiteSpace=wrap;html=1;fillColor=#000000;" parent="1" vertex="1">
                    <mxGeometry x="450" y="250" width="60" height="60" as="geometry"/>
                </mxCell>
                <mxCell id="NaqtpgOzilmIxhuoCxP4-3" value="" style="rounded=0;whiteSpace=wrap;html=1;fillColor=#000000;" parent="1" vertex="1">
                    <mxGeometry x="40" y="260" width="100" height="40" as="geometry"/>
                </mxCell>
                <mxCell id="NaqtpgOzilmIxhuoCxP4-55" value="" style="edgeStyle=orthogonalEdgeStyle;rounded=0;orthogonalLoop=1;jettySize=auto;html=1;" parent="1" source="NaqtpgOzilmIxhuoCxP4-54" target="NaqtpgOzilmIxhuoCxP4-14" edge="1">
                    <mxGeometry relative="1" as="geometry"/>
                </mxCell>
                <mxCell id="NaqtpgOzilmIxhuoCxP4-54" value="Camera" style="text;html=1;strokeColor=none;fillColor=none;align=center;verticalAlign=middle;whiteSpace=wrap;rounded=0;" parent="1" vertex="1">
                    <mxGeometry x="450" y="200" width="60" height="20" as="geometry"/>
                </mxCell>
            </root>
        </mxGraphModel>
    </diagram>
</mxfile>